<mxfile host="app.diagrams.net" modified="2022-04-29T06:30:45.217Z" agent="5.0 (Windows NT 10.0; Win64; x64) AppleWebKit/537.36 (KHTML, like Gecko) Chrome/100.0.4896.127 Safari/537.36" etag="Y42MbX1YB5dUpQvdMLUC" version="17.4.5" type="github">
  <diagram name="Page-1" id="c37626ed-c26b-45fb-9056-f9ebc6bb27b6">
    <mxGraphModel dx="1662" dy="762" grid="1" gridSize="10" guides="1" tooltips="1" connect="1" arrows="1" fold="1" page="1" pageScale="1" pageWidth="1100" pageHeight="850" background="none" math="0" shadow="0">
      <root>
        <mxCell id="0" />
        <mxCell id="1" parent="0" />
        <mxCell id="TqFHhcnp8rOVbBzlhD-o-1" value="" style="shape=mxgraph.cisco.switches.layer_2_remote_switch;sketch=0;html=1;pointerEvents=1;dashed=0;fillColor=#036897;strokeColor=#ffffff;strokeWidth=2;verticalLabelPosition=bottom;verticalAlign=top;align=center;outlineConnect=0;" parent="1" vertex="1">
          <mxGeometry x="410" y="390" width="101" height="50" as="geometry" />
        </mxCell>
        <mxCell id="TqFHhcnp8rOVbBzlhD-o-3" value="" style="shape=mxgraph.cisco.switches.layer_2_remote_switch;sketch=0;html=1;pointerEvents=1;dashed=0;fillColor=#036897;strokeColor=#ffffff;strokeWidth=2;verticalLabelPosition=bottom;verticalAlign=top;align=center;outlineConnect=0;" parent="1" vertex="1">
          <mxGeometry x="650" y="390" width="101" height="50" as="geometry" />
        </mxCell>
        <mxCell id="TqFHhcnp8rOVbBzlhD-o-4" value="" style="shape=mxgraph.cisco.switches.layer_2_remote_switch;sketch=0;html=1;pointerEvents=1;dashed=0;fillColor=#036897;strokeColor=#ffffff;strokeWidth=2;verticalLabelPosition=bottom;verticalAlign=top;align=center;outlineConnect=0;" parent="1" vertex="1">
          <mxGeometry x="410" y="520" width="101" height="50" as="geometry" />
        </mxCell>
        <mxCell id="TqFHhcnp8rOVbBzlhD-o-5" value="" style="shape=mxgraph.cisco.switches.layer_2_remote_switch;sketch=0;html=1;pointerEvents=1;dashed=0;fillColor=#036897;strokeColor=#ffffff;strokeWidth=2;verticalLabelPosition=bottom;verticalAlign=top;align=center;outlineConnect=0;" parent="1" vertex="1">
          <mxGeometry x="650" y="520" width="101" height="50" as="geometry" />
        </mxCell>
        <mxCell id="TqFHhcnp8rOVbBzlhD-o-6" value="Switch core&lt;br&gt;" style="text;html=1;resizable=0;autosize=1;align=center;verticalAlign=middle;points=[];fillColor=none;strokeColor=none;rounded=0;" parent="1" vertex="1">
          <mxGeometry x="315" y="410" width="80" height="20" as="geometry" />
        </mxCell>
        <mxCell id="TqFHhcnp8rOVbBzlhD-o-8" value="Switch Access" style="text;html=1;resizable=0;autosize=1;align=center;verticalAlign=middle;points=[];fillColor=none;strokeColor=none;rounded=0;" parent="1" vertex="1">
          <mxGeometry x="310" y="535" width="90" height="20" as="geometry" />
        </mxCell>
        <mxCell id="TqFHhcnp8rOVbBzlhD-o-25" value="" style="endArrow=none;html=1;rounded=0;elbow=vertical;exitX=0.5;exitY=0;exitDx=0;exitDy=0;exitPerimeter=0;entryX=0.5;entryY=1;entryDx=0;entryDy=0;entryPerimeter=0;" parent="1" source="TqFHhcnp8rOVbBzlhD-o-4" target="TqFHhcnp8rOVbBzlhD-o-3" edge="1">
          <mxGeometry width="50" height="50" relative="1" as="geometry">
            <mxPoint x="510" y="480" as="sourcePoint" />
            <mxPoint x="660" y="440" as="targetPoint" />
          </mxGeometry>
        </mxCell>
        <mxCell id="TqFHhcnp8rOVbBzlhD-o-27" value="" style="endArrow=none;html=1;rounded=0;elbow=vertical;exitX=0.5;exitY=0;exitDx=0;exitDy=0;exitPerimeter=0;" parent="1" source="TqFHhcnp8rOVbBzlhD-o-5" edge="1">
          <mxGeometry width="50" height="50" relative="1" as="geometry">
            <mxPoint x="511" y="570" as="sourcePoint" />
            <mxPoint x="460" y="440" as="targetPoint" />
          </mxGeometry>
        </mxCell>
        <mxCell id="TqFHhcnp8rOVbBzlhD-o-29" value="" style="endArrow=none;html=1;rounded=0;elbow=vertical;" parent="1" source="TqFHhcnp8rOVbBzlhD-o-4" edge="1">
          <mxGeometry width="50" height="50" relative="1" as="geometry">
            <mxPoint x="410" y="490" as="sourcePoint" />
            <mxPoint x="460" y="440" as="targetPoint" />
          </mxGeometry>
        </mxCell>
        <mxCell id="TqFHhcnp8rOVbBzlhD-o-30" value="" style="endArrow=none;html=1;rounded=0;elbow=vertical;exitX=0.5;exitY=0;exitDx=0;exitDy=0;exitPerimeter=0;" parent="1" source="TqFHhcnp8rOVbBzlhD-o-5" edge="1">
          <mxGeometry width="50" height="50" relative="1" as="geometry">
            <mxPoint x="650" y="490" as="sourcePoint" />
            <mxPoint x="700" y="440" as="targetPoint" />
          </mxGeometry>
        </mxCell>
        <mxCell id="TqFHhcnp8rOVbBzlhD-o-31" value="" style="endArrow=none;html=1;rounded=0;elbow=vertical;entryX=0;entryY=0.5;entryDx=0;entryDy=0;entryPerimeter=0;exitX=1;exitY=0.5;exitDx=0;exitDy=0;exitPerimeter=0;" parent="1" source="TqFHhcnp8rOVbBzlhD-o-1" target="TqFHhcnp8rOVbBzlhD-o-3" edge="1">
          <mxGeometry width="50" height="50" relative="1" as="geometry">
            <mxPoint x="540" y="450" as="sourcePoint" />
            <mxPoint x="590" y="400" as="targetPoint" />
          </mxGeometry>
        </mxCell>
        <mxCell id="TqFHhcnp8rOVbBzlhD-o-34" value="" style="shape=mxgraph.cisco.routers.router;sketch=0;html=1;pointerEvents=1;dashed=0;fillColor=#036897;strokeColor=#ffffff;strokeWidth=2;verticalLabelPosition=bottom;verticalAlign=top;align=center;outlineConnect=0;" parent="1" vertex="1">
          <mxGeometry x="421.5" y="270" width="78" height="53" as="geometry" />
        </mxCell>
        <mxCell id="TqFHhcnp8rOVbBzlhD-o-35" value="" style="endArrow=none;html=1;rounded=0;elbow=vertical;exitX=0.5;exitY=0;exitDx=0;exitDy=0;exitPerimeter=0;entryX=0.5;entryY=1;entryDx=0;entryDy=0;entryPerimeter=0;" parent="1" source="TqFHhcnp8rOVbBzlhD-o-1" target="TqFHhcnp8rOVbBzlhD-o-34" edge="1">
          <mxGeometry width="50" height="50" relative="1" as="geometry">
            <mxPoint x="320" y="330" as="sourcePoint" />
            <mxPoint x="530" y="300" as="targetPoint" />
          </mxGeometry>
        </mxCell>
        <mxCell id="TqFHhcnp8rOVbBzlhD-o-36" value="" style="endArrow=none;html=1;rounded=0;elbow=vertical;entryX=0.5;entryY=0;entryDx=0;entryDy=0;entryPerimeter=0;exitX=0.5;exitY=1;exitDx=0;exitDy=0;exitPerimeter=0;" parent="1" source="EVcRI1gZMUK-_CVRTM2A-1" target="TqFHhcnp8rOVbBzlhD-o-3" edge="1">
          <mxGeometry width="50" height="50" relative="1" as="geometry">
            <mxPoint x="608" y="300" as="sourcePoint" />
            <mxPoint x="818" y="270" as="targetPoint" />
          </mxGeometry>
        </mxCell>
        <mxCell id="TqFHhcnp8rOVbBzlhD-o-37" value="" style="endArrow=none;html=1;rounded=0;elbow=vertical;exitX=0.5;exitY=0;exitDx=0;exitDy=0;exitPerimeter=0;entryX=0.55;entryY=0.95;entryDx=0;entryDy=0;entryPerimeter=0;" parent="1" source="TqFHhcnp8rOVbBzlhD-o-34" target="TqFHhcnp8rOVbBzlhD-o-39" edge="1">
          <mxGeometry width="50" height="50" relative="1" as="geometry">
            <mxPoint x="370" y="260" as="sourcePoint" />
            <mxPoint x="580" y="230" as="targetPoint" />
          </mxGeometry>
        </mxCell>
        <mxCell id="TqFHhcnp8rOVbBzlhD-o-38" value="" style="endArrow=none;html=1;rounded=0;elbow=vertical;" parent="1" edge="1">
          <mxGeometry width="50" height="50" relative="1" as="geometry">
            <mxPoint x="340" y="608.5" as="sourcePoint" />
            <mxPoint x="451" y="570" as="targetPoint" />
          </mxGeometry>
        </mxCell>
        <mxCell id="TqFHhcnp8rOVbBzlhD-o-39" value="&lt;b&gt;&lt;font style=&quot;font-size: 14px&quot;&gt;ISP&lt;/font&gt;&lt;/b&gt;" style="ellipse;shape=cloud;whiteSpace=wrap;html=1;" parent="1" vertex="1">
          <mxGeometry x="509" y="160" width="120" height="80" as="geometry" />
        </mxCell>
        <mxCell id="TqFHhcnp8rOVbBzlhD-o-41" value="" style="shape=mxgraph.cisco.computers_and_peripherals.pc;sketch=0;html=1;pointerEvents=1;dashed=0;fillColor=#036897;strokeColor=#ffffff;strokeWidth=2;verticalLabelPosition=bottom;verticalAlign=top;align=center;outlineConnect=0;" parent="1" vertex="1">
          <mxGeometry x="280" y="610" width="78" height="70" as="geometry" />
        </mxCell>
        <mxCell id="TqFHhcnp8rOVbBzlhD-o-42" value="" style="pointerEvents=1;shadow=0;dashed=0;html=1;strokeColor=none;fillColor=#4495D1;labelPosition=center;verticalLabelPosition=bottom;verticalAlign=top;align=center;outlineConnect=0;shape=mxgraph.veeam.laptop;" parent="1" vertex="1">
          <mxGeometry x="390" y="620" width="58.4" height="44" as="geometry" />
        </mxCell>
        <mxCell id="TqFHhcnp8rOVbBzlhD-o-43" value="" style="endArrow=none;html=1;rounded=0;elbow=vertical;" parent="1" source="TqFHhcnp8rOVbBzlhD-o-42" edge="1">
          <mxGeometry width="50" height="50" relative="1" as="geometry">
            <mxPoint x="350" y="618.5000000000002" as="sourcePoint" />
            <mxPoint x="450" y="570" as="targetPoint" />
          </mxGeometry>
        </mxCell>
        <mxCell id="TqFHhcnp8rOVbBzlhD-o-45" value="" style="shape=mxgraph.cisco.computers_and_peripherals.pc;sketch=0;html=1;pointerEvents=1;dashed=0;fillColor=#036897;strokeColor=#ffffff;strokeWidth=2;verticalLabelPosition=bottom;verticalAlign=top;align=center;outlineConnect=0;" parent="1" vertex="1">
          <mxGeometry x="616.3" y="607" width="78" height="70" as="geometry" />
        </mxCell>
        <mxCell id="TqFHhcnp8rOVbBzlhD-o-46" value="" style="pointerEvents=1;shadow=0;dashed=0;html=1;strokeColor=none;fillColor=#4495D1;labelPosition=center;verticalLabelPosition=bottom;verticalAlign=top;align=center;outlineConnect=0;shape=mxgraph.veeam.laptop;" parent="1" vertex="1">
          <mxGeometry x="726.3" y="617" width="58.4" height="44" as="geometry" />
        </mxCell>
        <mxCell id="TqFHhcnp8rOVbBzlhD-o-47" value="" style="endArrow=none;html=1;rounded=0;elbow=vertical;exitX=0.5;exitY=0;exitDx=0;exitDy=0;exitPerimeter=0;" parent="1" source="TqFHhcnp8rOVbBzlhD-o-45" edge="1">
          <mxGeometry width="50" height="50" relative="1" as="geometry">
            <mxPoint x="580" y="607.0000000000002" as="sourcePoint" />
            <mxPoint x="691" y="568.5" as="targetPoint" />
          </mxGeometry>
        </mxCell>
        <mxCell id="TqFHhcnp8rOVbBzlhD-o-48" value="" style="endArrow=none;html=1;rounded=0;elbow=vertical;" parent="1" source="TqFHhcnp8rOVbBzlhD-o-46" edge="1">
          <mxGeometry width="50" height="50" relative="1" as="geometry">
            <mxPoint x="360" y="628.5000000000002" as="sourcePoint" />
            <mxPoint x="690" y="570" as="targetPoint" />
          </mxGeometry>
        </mxCell>
        <mxCell id="EVcRI1gZMUK-_CVRTM2A-1" value="" style="shape=mxgraph.cisco.routers.router;sketch=0;html=1;pointerEvents=1;dashed=0;fillColor=#036897;strokeColor=#ffffff;strokeWidth=2;verticalLabelPosition=bottom;verticalAlign=top;align=center;outlineConnect=0;" vertex="1" parent="1">
          <mxGeometry x="661.5" y="270" width="78" height="53" as="geometry" />
        </mxCell>
        <mxCell id="EVcRI1gZMUK-_CVRTM2A-4" value="" style="endArrow=none;html=1;rounded=0;exitX=1;exitY=0.5;exitDx=0;exitDy=0;exitPerimeter=0;" edge="1" parent="1" source="TqFHhcnp8rOVbBzlhD-o-34">
          <mxGeometry width="50" height="50" relative="1" as="geometry">
            <mxPoint x="810" y="480" as="sourcePoint" />
            <mxPoint x="650" y="300" as="targetPoint" />
            <Array as="points">
              <mxPoint x="660" y="297" />
            </Array>
          </mxGeometry>
        </mxCell>
        <mxCell id="EVcRI1gZMUK-_CVRTM2A-6" value="" style="endArrow=none;html=1;rounded=0;" edge="1" parent="1" source="EVcRI1gZMUK-_CVRTM2A-1">
          <mxGeometry width="50" height="50" relative="1" as="geometry">
            <mxPoint x="530" y="290" as="sourcePoint" />
            <mxPoint x="580" y="240" as="targetPoint" />
          </mxGeometry>
        </mxCell>
        <mxCell id="EVcRI1gZMUK-_CVRTM2A-8" value="Switch core&lt;br&gt;" style="text;html=1;resizable=0;autosize=1;align=center;verticalAlign=middle;points=[];fillColor=none;strokeColor=none;rounded=0;" vertex="1" parent="1">
          <mxGeometry x="761" y="400" width="80" height="20" as="geometry" />
        </mxCell>
        <mxCell id="EVcRI1gZMUK-_CVRTM2A-9" value="Switch Access" style="text;html=1;resizable=0;autosize=1;align=center;verticalAlign=middle;points=[];fillColor=none;strokeColor=none;rounded=0;" vertex="1" parent="1">
          <mxGeometry x="761" y="530" width="90" height="20" as="geometry" />
        </mxCell>
        <mxCell id="EVcRI1gZMUK-_CVRTM2A-10" value="Router 1&lt;br&gt;" style="text;html=1;resizable=0;autosize=1;align=center;verticalAlign=middle;points=[];fillColor=none;strokeColor=none;rounded=0;" vertex="1" parent="1">
          <mxGeometry x="320" y="286.5" width="60" height="20" as="geometry" />
        </mxCell>
        <mxCell id="EVcRI1gZMUK-_CVRTM2A-11" value="Router 2&lt;br&gt;" style="text;html=1;resizable=0;autosize=1;align=center;verticalAlign=middle;points=[];fillColor=none;strokeColor=none;rounded=0;" vertex="1" parent="1">
          <mxGeometry x="761" y="286.5" width="60" height="20" as="geometry" />
        </mxCell>
        <mxCell id="EVcRI1gZMUK-_CVRTM2A-13" value="" style="endArrow=none;dashed=1;html=1;dashPattern=1 3;strokeWidth=2;rounded=0;" edge="1" parent="1">
          <mxGeometry width="50" height="50" relative="1" as="geometry">
            <mxPoint x="150" y="270" as="sourcePoint" />
            <mxPoint x="960" y="270" as="targetPoint" />
          </mxGeometry>
        </mxCell>
      </root>
    </mxGraphModel>
  </diagram>
</mxfile>
